# xmcd
#
# Track frame offsets:
#	150
#	25842
#	57377
#	100941
#	140442
#	162976
#	185918
#	221776
#	251596
#
# Disc length: 3879 seconds
#
# Revision: 1
# Processed by: cddbd v1.5.2PL0 Copyright (c) Steve Scherf et al.
# Submitted via: audiograbber 1.83.01
#
DISCID=860f2509
DTITLE=Grateful Dead - 80-11-28 Lakeland Civic Centre Arena, Lakeland FL
DYEAR=1900
DGENRE=
TTITLE0=Jack Straw
TTITLE1=Peggy-O
TTITLE2=Little Red Rooster
TTITLE3=Tennessee Jed
TTITLE4=Passenger
TTITLE5=Deep Elem Blues
TTITLE6=Looks Like Rain
TTITLE7=Deal
TTITLE8=Feel Like A Stranger
EXTD=
EXTT0=
EXTT1=
EXTT2=
EXTT3=
EXTT4=
EXTT5=
EXTT6=
EXTT7=
EXTT8=
PLAYORDER=
